<svg width="114" height="83" viewBox="0 0 114 83" fill="none" xmlns="http://www.w3.org/2000/svg">
<g clip-path="url(#clip0_988_9404)">
<path d="M42.3857 21.7294C40.0922 20.557 37.9317 19.3936 34.9039 19.7139C30.3713 20.1914 25.9264 24.9415 28.0929 30.0724C29.1989 32.6922 32.3687 34.883 36.2516 33.7166C37.6688 33.2905 39.0981 32.0849 40.1798 31.127C44.2108 27.5704 45.8123 21.3064 48.2357 15.973C50.7831 10.3677 54.3668 6.58454 58.6909 3.21532C53.3394 1.98548 44.6036 3.21532 41.5215 6.47576C40.8718 7.15867 40.0771 8.53356 40.1798 9.54583C40.3642 11.383 43.2257 11.4737 44.9753 10.7938C42.6637 13.5134 37.0554 10.6941 38.8352 6.76585C41.2918 1.35394 53.2397 1.21494 59.4584 2.64119C60.8091 2.17585 62.2263 0.486704 63.9668 0.435334C64.6558 0.414182 65.2239 0.661964 65.3085 1.10616C65.5321 2.24837 63.1359 3.17906 61.9514 3.31202C61.3802 3.37547 60.646 3.21532 60.226 3.31202C59.1623 3.55678 57.3039 5.77774 56.5818 6.66915C55.2885 8.26462 53.9589 10.4614 52.7442 12.5192C49.1997 18.5204 47.2507 26.6639 42.4703 31.3204C39.0527 34.6443 31.7522 36.4875 27.9872 31.9912C27.189 30.942 26.6319 29.7297 26.3554 28.4407C25.319 23.2161 29.8063 19.4239 34.2119 18.9434C34.8822 18.8786 35.5571 18.8786 36.2274 18.9434C38.4816 19.1549 40.9897 19.9829 42.3857 21.7294ZM61.1869 2.64119C62.6977 2.59285 64.0061 2.33902 64.4473 1.20285C63.2205 1.17566 61.9967 1.93109 61.1869 2.64119Z" fill="white"/>
<path d="M68.6685 1.39647C68.7531 2.33018 68.3361 3.30318 67.901 3.98609C66.4143 6.32188 63.9727 8.09865 61.3771 9.26202C59.5157 12.1629 57.6906 15.106 56.3882 18.5659C58.6001 16.5142 61.223 13.6647 64.4441 11.9483C65.3506 11.4709 66.9552 10.4616 67.8979 11.6462C67.0307 14.0182 65.1572 15.9672 63.7733 18.2637C62.625 20.1735 61.0145 23.2707 60.7999 25.9359C60.7183 26.9421 60.7304 27.5132 61.2804 28.0511C64.5589 26.8908 64.7825 22.4942 66.3629 19.5147C67.9433 16.5353 70.0434 13.704 73.0772 11.8426C74.165 11.1748 78.9665 9.00517 78.3531 11.9393C77.8576 14.3023 73.3219 17.5597 70.4966 18.3665C69.9739 18.5145 69.6566 18.3665 69.3454 18.5599C68.3089 20.3306 66.5744 22.7268 66.2753 25.4645C66.1604 26.5251 66.2753 27.7006 66.659 28.4379C70.2851 30.0515 72.6783 25.4434 73.9474 22.6966C74.2103 22.1225 74.3131 21.2824 75.002 21.2583C75.5218 21.9714 74.6032 22.9776 73.9474 24.0413C72.9835 25.6005 71.938 27.5676 70.4936 28.6464C68.4721 30.1572 64.0362 30.5229 64.4502 26.3438C63.1508 27.1023 60.7667 31.1786 59.0775 28.5497C58.6901 27.8099 58.4928 26.9854 58.5034 26.1504C58.5638 23.2163 59.8692 20.3669 61.5735 18.0945C63.2777 15.8222 65.5017 13.9457 66.5623 11.9544C64.5197 12.1206 62.9756 13.6103 61.4798 14.6407C57.1315 18.2214 53.9255 22.9535 51.5081 28.453C50.4823 28.4325 49.4761 28.7348 48.6314 29.3172C50.378 26.1625 51.638 22.7722 53.3302 19.6296C55.0224 16.487 56.8505 13.4955 58.5094 10.4224C57.5032 10.3831 56.5786 10.9421 55.7264 11.3802C54.8743 11.8184 54.1733 12.4922 53.4239 12.7219C53.7109 11.6582 54.9045 11.063 55.8231 10.6067C56.8354 10.1081 58.2405 9.92075 59.277 9.26504C59.8662 8.88732 60.2348 8.12585 60.7153 7.45201C61.924 5.72358 63.5769 3.64463 65.3204 2.46314C66.0789 1.93131 67.4356 1.23027 68.6685 1.39647ZM67.4356 1.9706C65.0182 3.04935 62.9997 6.13453 61.6943 8.31622C64.6526 7.05314 66.8645 5.04671 68.1216 2.0824C67.8859 2.12471 67.5263 1.92527 67.4356 1.9706ZM75.7816 11.4679C73.4005 12.5255 71.4757 15.6016 70.1219 17.5113C70.7263 17.6594 71.2944 16.9735 72.0407 16.9372C74.1559 15.2783 76.7456 14.0968 77.782 11.3742C77.0508 11.0056 76.2772 11.2473 75.7665 11.4679H75.7816ZM59.4583 41.0113C58.8987 41.1948 58.3533 41.419 57.8265 41.6821C57.2041 42.5886 56.4788 43.4045 56.1011 44.5588C57.0711 44.2566 57.6634 43.48 58.594 42.9271C59.5247 42.3741 60.7093 42.1928 61.5674 41.5854C62.4256 40.978 63.2264 39.3101 63.9667 38.325C64.7359 37.253 65.5684 36.2278 66.4596 35.2549C67.7982 33.883 69.3302 32.4054 71.8322 32.5686C72.6572 34.9165 70.3486 37.5 68.9556 38.8024C67.5625 40.1048 65.7918 40.9448 64.3504 41.5854C61.0265 46.8825 58.0048 54.9988 53.992 60.4803C52.6141 62.3628 50.9702 64.3511 49.1965 65.3724C47.7219 66.2125 44.2167 66.5146 43.7302 64.5082C42.3644 65.7683 41.2433 67.2278 39.6055 68.4365C38.1793 69.482 36.1638 70.875 33.9458 70.8357C30.9664 70.7813 28.9539 68.3186 29.4374 65.2727C29.933 62.1452 33.7494 58.1294 36.7258 59.9968C33.0544 59.8578 30.2231 63.2935 30.2986 66.8077C30.356 69.491 33.0877 70.6635 35.8616 69.8778C36.9912 69.5164 38.0356 68.9294 38.9317 68.1524C42.2556 65.3755 44.9751 60.4742 46.6038 56.546C44.6186 57.8997 42.9264 60.4531 40.2582 60.7764C36.4267 61.2296 36.9676 56.7635 37.859 54.2555C39.2943 50.2215 43.8782 45.3867 47.4499 43.4166C48.3202 42.9361 51.7468 41.383 52.055 43.3199C52.2122 44.317 50.378 46.2449 49.7525 46.8704C48.1177 48.5052 45.8786 50.155 42.9415 50.3242C41.2161 52.8534 39.11 55.5095 39.2973 59.6281C42.0622 60.438 44.1472 58.0931 45.6429 56.3677C49.0545 52.3881 51.6169 46.6136 54.3727 42.362C51.8435 42.0145 49.5893 41.392 49.0968 39.0049C49.8915 39.4551 50.2662 40.4885 51.3026 41.0203C52.2394 41.5008 53.4178 41.5612 54.8501 41.5945C57.1013 39.159 59.5006 35.1763 62.4286 33.2485C62.9997 32.8738 64.8823 31.9612 65.6891 32.768C67.0579 34.1369 64.2296 37.1828 63.6736 37.7569C62.3289 39.1469 60.9057 39.9839 59.4583 41.0113ZM60.8966 36.9833C59.9327 38.3673 58.9204 39.6847 58.4974 40.7242C60.1653 40.2166 61.646 38.9807 62.8154 37.7508C63.9093 36.5996 65.3869 35.0313 65.118 33.1457C63.2233 32.9644 61.921 35.5148 60.8966 36.9833ZM69.6264 33.6262C67.7287 35.1914 66.0517 38.5365 64.8309 40.6275C66.2028 40.1712 67.6109 39.165 68.7591 38.0379C69.9678 36.8443 71.5361 35.0162 71.4455 33.2424C70.7233 32.8254 70.0524 33.2726 69.6264 33.6262ZM60.7878 42.5463C59.15 43.4679 57.0802 44.4742 55.7053 45.9035C53.6082 48.0821 51.8677 51.5873 50.1423 54.7269C48.846 57.0035 47.434 59.2123 45.9119 61.3445C45.0053 62.6347 44.12 63.2119 44.5702 64.892C46.1476 66.3092 48.4048 64.9131 49.269 64.0278C50.4777 62.8009 51.6229 60.8217 52.6261 59.0389C55.3668 54.1769 57.6211 48.4206 60.395 43.7882C60.6065 43.4347 60.9993 43.0026 60.8755 42.5403L60.7878 42.5463ZM50.0456 43.1204C47.5013 44.2506 45.1715 47.3267 43.7 49.4661C47.326 48.5233 49.541 46.1603 51.2785 43.3259C50.9115 43.1103 50.4781 43.0372 50.0607 43.1204H50.0456Z" fill="white"/>
<path d="M56.775 32.7617C51.1394 34.8044 46.8274 37.4212 43.153 41.2981C39.5844 45.0662 37.2063 49.7589 34.5199 54.8233C33.2418 57.2407 31.7611 59.5312 30.492 61.9214C29.2229 64.3116 28.0746 66.7561 26.5637 69.0194C25.1768 71.1044 23.542 73.3163 21.9586 75.4466C19.3902 78.8944 16.4621 82.2999 11.3131 82.8317C2.33555 83.7684 -2.36626 74.6851 1.6194 67.7714C4.22413 63.2388 9.73575 60.1265 16.6797 60.5767C12.0957 60.9726 8.00431 62.1631 5.07323 65.0851C3.38107 66.7743 1.91855 69.3699 1.6194 71.7994C1.26586 74.6882 2.6075 77.6736 4.20902 79.3779C6.27588 80.644 8.51196 81.8315 11.9779 81.4931C14.6733 81.2272 16.9486 79.4111 18.5955 77.6555C23.5692 72.3645 27.0744 64.7709 29.7214 57.4099C33.5228 46.8339 39.8231 39.2796 49.0001 34.8679C44.9791 35.6752 41.0784 36.9954 37.3936 38.7961C33.7675 40.5759 30.1052 42.5491 28.4735 45.6071C27.434 47.5561 27.567 51.8923 30.8727 50.2122C30.5071 50.9918 29.5009 51.2728 28.5702 51.1701C26.0289 50.8891 26.1528 47.6135 27.3222 45.7038C29.933 41.6426 34.4293 38.9714 39.5028 37.0707C44.7727 35.1187 50.6288 33.3691 56.775 32.7617ZM76.4373 39.476C77.2169 40.5034 75.7665 41.4311 75.7665 42.4494C75.7665 43.9602 77.8062 44.6764 78.1658 45.9032C78.4679 46.9759 78.0811 48.5895 77.6853 49.357C76.8392 51.0009 75.1591 52.4362 73.7571 53.9622C72.355 55.4881 70.7353 57.0473 70.4966 59.0447C71.3064 59.4315 73.0318 58.8755 72.6118 57.703C72.9956 57.6094 72.914 57.9901 73.2826 57.8934C76.1926 55.476 78.5072 51.8711 80.6677 48.3961C81.3627 47.2781 82.2965 45.9546 82.6832 44.8456C83.0489 43.8001 82.8313 42.2439 84.315 41.9689C84.5748 43.1776 83.3238 44.0539 83.1637 45.5164C83.0398 46.6405 83.2151 47.816 83.1637 48.9703C82.9522 53.7446 81.7979 59.8847 77.1202 60.48C75.2498 60.7187 74.3372 59.9089 73.2826 59.1384C72.3429 59.8122 70.6658 61.039 69.3544 59.9059C68.5325 56.5306 71.0254 54.3429 72.7115 52.137C74.1234 50.3447 75.1668 48.2908 75.7816 46.0936C75.6003 45.317 75.6819 44.2805 75.3979 43.6007C74.2103 44.8788 73.6573 46.6224 72.8082 48.2058C71.9756 49.7342 71.0461 51.2078 70.0252 52.6175C69.1843 54.1275 68.1878 55.5453 67.0518 56.8479C66.0517 58.0082 64.8067 59.3499 63.1236 60.0147C59.2558 61.5255 58.4853 57.138 59.5761 53.8745C60.7092 50.4872 64.1087 46.6042 67.2483 44.3772C68.3814 43.5704 69.7744 42.6367 70.8925 42.3617C74.3221 41.5278 73.186 44.5253 72.0437 45.9123C70.5994 47.6588 68.3512 49.3298 66.0003 49.9402C65.4594 50.0823 64.6889 50.0218 64.2749 50.2424C63.6041 50.5748 62.897 52.5208 62.4618 53.5028C61.6248 55.3552 60.5823 57.7333 61.791 59.3529C63.8428 59.2441 65.1995 57.7423 66.3961 56.3795C69.3272 53.0556 71.518 49.3329 73.8779 45.0601C74.3251 44.2533 75.002 43.1413 75.1259 42.5672C75.3888 41.3585 74.999 40.3251 75.9901 39.5938C76.1986 39.612 76.1654 39.3974 76.4373 39.476ZM67.7076 45.7098C66.5744 46.8671 65.3748 47.9973 64.9246 49.2603C67.5776 48.8131 70.0977 47.0303 71.7355 45.1357C72.2009 44.5978 72.6994 43.8303 72.503 43.0205C70.3939 42.6065 68.9465 44.4528 67.7076 45.7098ZM73.6543 58.7546C74.8842 60.202 76.9631 59.359 77.8847 58.3708C80.1782 55.9232 81.6438 50.5597 82.2965 47.1482C82.2753 47.0394 82.1907 47.0001 82.1061 46.9578C79.7582 51.3665 77.1625 55.5183 73.6543 58.7546ZM95.9093 5.32748C96.287 6.00435 96.8007 6.75676 97.5411 6.86252C99.1637 7.09519 99.3057 5.27611 100.227 4.46327C101.817 4.5932 102.152 5.14315 103.775 5.42115C103.674 5.99035 103.641 6.56963 103.678 7.14656C102.953 7.57262 103.098 8.86894 102.433 9.35242C102.388 11.4344 103.195 13.1598 104.449 14.0512C104.82 14.3171 105.446 14.3322 105.887 14.6253C109.096 16.7738 107.017 22.6994 104.352 24.4097C105.827 23.8053 106.769 22.6812 108.477 22.2945C109.492 22.4576 110.528 23.0167 110.683 23.9262C111.084 26.2831 106.96 26.7062 105.984 28.0509C106.012 28.4488 106.182 28.8233 106.464 29.1054C107.975 29.4378 112.06 27.5281 111.453 30.4471C111.103 32.1302 106.667 31.7646 107.425 35.1459C106.383 34.3451 106.425 32.5804 107.522 31.8854C108.105 31.5168 108.906 31.692 109.441 31.3113C110.154 30.8006 110.078 29.3018 109.138 29.1961C108.413 29.1175 107.67 30.3715 106.549 30.2507C106.126 30.2053 106.047 29.9908 105.494 29.7702C105.259 30.846 105.168 32.3145 104.056 33.0307C102.469 34.049 99.9524 33.1394 99.9312 31.3053C99.9312 30.0603 100.687 29.3713 102.33 29.5798C102.028 26.9419 98.3388 29.4469 98.2058 30.9215C98.3479 31.3536 98.8978 31.3808 98.9734 31.8794C98.647 32.3568 98.0668 32.242 98.0124 32.8373C97.9429 33.9342 99.5233 33.91 100.315 33.221C101.137 34.4297 100.11 36.3334 98.502 35.714C98.2391 35.8016 98.6712 36.0494 98.4053 36.1944C96.9376 36.3073 95.4648 36.3396 93.9936 36.2911C93.8153 36.1098 93.9936 36.0494 93.9936 35.8106C92.2379 36.415 91.138 34.4448 91.9781 33.3177C92.6308 33.6441 93.9301 34.2242 94.1839 33.1274C93.9301 32.523 93.1868 32.3991 92.7456 31.9761C92.6247 31.1844 93.4889 31.3717 93.9905 31.2086C93.7125 29.468 91.7847 28.075 89.8659 28.906C89.9112 29.2082 89.6936 29.2444 89.7692 29.5768C90.8056 29.7098 92.0748 29.9304 92.2621 31.0152C92.6821 33.4325 89.7329 34.188 88.1375 33.221C87.0768 32.5804 86.8834 31.2841 86.6024 30.151C86.0736 30.3232 85.9981 30.574 85.5478 30.6314C84.5023 30.7583 83.6985 29.6796 82.9582 29.7672C82.2179 29.8548 81.8613 30.9094 82.4778 31.7827C84.7592 31.825 86.4362 33.5564 85.0674 35.6203C84.5597 34.4116 84.8891 33.8072 84.0128 33.0307C83.0398 32.1634 80.7252 32.1483 80.559 30.8248C80.4472 29.9183 81.1905 29.3139 81.9006 29.1931C82.8615 29.0118 86.2519 30.5226 86.0253 28.5222C85.9376 27.7577 84.7773 27.5674 83.9101 27.2743C82.4143 26.7666 81.0273 26.1139 81.2237 24.1075C83.1274 21.2641 86.3607 24.4097 88.3218 25.2588C86.1431 23.5576 83.7076 21.1281 84.0914 17.6803C84.1375 17.2225 84.2389 16.772 84.3935 16.3386C84.8438 15.2992 85.7201 15.13 86.7928 14.4199C88.0679 13.5859 88.9533 11.8302 88.8083 9.62437C88.2946 9.29501 88.5061 8.6544 88.2341 8.08934C88.0528 7.72975 87.5905 7.64816 87.4666 7.22512C87.3427 6.80208 87.5573 6.2068 87.4666 5.59339C87.7446 5.4272 87.9713 5.59339 88.2341 5.4967C88.9896 5.25798 89.8236 4.43305 90.8238 4.63248C92.0657 4.88329 91.8179 7.49406 93.8938 6.83834C94.5647 6.62682 94.7037 6.00737 95.3322 5.4C94.2051 4.03116 93.8213 1.44456 95.5225 0.411133C97.0485 1.21491 97.0304 4.12181 95.9093 5.32748ZM95.4289 0.819066C94.2927 1.78602 94.3803 4.36355 95.731 5.04948C96.6648 4.05836 96.8038 1.43248 95.4289 0.819066ZM101.17 5.04948C99.762 4.24872 99.9101 5.87139 99.3571 6.58452C99.0006 7.03476 98.5896 6.92295 98.3025 7.35204C100.07 8.11653 102.013 6.85043 101.185 5.04042L101.17 5.04948ZM91.0021 5.04948C90.1469 4.72313 89.7057 5.31539 89.6604 5.817C89.5335 7.18584 91.3646 8.13768 92.9208 7.44873C92.0536 6.88367 91.5036 5.99226 91.0051 5.04042L91.0021 5.04948ZM101.457 6.96828C102.279 6.78697 102.403 7.30067 102.896 7.44873C103.518 7.36714 103.364 6.50897 103.376 5.817C102.602 5.7898 102.376 5.21265 101.651 5.14618C101.759 5.58735 101.493 6.65402 101.472 6.95921L101.457 6.96828ZM87.7567 6.11011C87.7235 6.78395 87.7356 7.40945 88.1405 7.64514C88.7781 7.57867 88.9986 7.09519 89.7722 7.16469C89.6393 6.53013 89.2041 6.12824 89.47 5.35165C88.6693 5.34561 88.4245 5.93183 87.7567 6.11011ZM95.5377 5.80793C94.4831 7.01662 93.0266 8.24949 90.8389 8.01379C91.4976 10.129 90.3342 11.8725 89.4005 13.0027C89.9172 13.4317 89.878 14.6495 89.4972 15.2085C90.7663 16.4172 89.9626 18.9796 88.633 19.4389C87.3035 19.8982 85.9739 18.7983 86.4272 17.3237C87.1101 16.4716 88.0498 17.4416 88.5424 17.5141C89.5244 15.2508 85.7261 14.9849 85.6657 17.1303C86.7595 18.2877 85.2245 21.1009 86.817 22.1192C86.7172 20.9286 87.3367 19.8046 88.352 19.72C89.1014 19.6595 89.9263 20.2276 89.887 20.8712C89.8326 21.7415 88.8627 21.536 88.1616 21.9258C87.8443 22.926 88.3762 24.4459 89.3129 24.8025C89.0953 23.8144 89.3129 22.228 90.5609 22.3096C91.2105 22.3519 91.6729 23.0711 91.5188 23.9413C91.4553 24.31 91.0655 24.5638 91.0383 24.8992C90.9839 25.5851 91.5943 26.7122 92.0929 27.2018C92.3135 27.4163 92.664 27.4374 92.8604 27.5855C93.5886 28.1385 93.7669 28.8667 94.3954 29.2172C94.5737 27.8605 95.8549 27.6097 95.8338 26.0505C95.4118 26.0471 94.9925 25.983 94.5888 25.8601C91.28 24.5426 89.7964 18.197 90.5367 13.4801C90.9809 10.691 93.0296 6.78697 96.0997 7.24628C99.3239 7.72673 101.191 13.5617 100.798 17.8918C100.448 21.7778 99.1486 24.9566 96.1934 26.0505C96.4079 27.4646 97.5018 28.0025 97.9188 29.2172C98.1756 27.8998 101.079 27.0114 100.892 24.8055C100.844 24.2254 100.134 23.6271 100.412 22.79C100.506 22.5899 100.655 22.4207 100.842 22.3019C101.029 22.1832 101.245 22.1198 101.466 22.1192C102.476 22.1706 102.714 23.4548 102.618 24.5185C103.343 24.3795 104.032 22.6812 103.672 21.7354C103.038 21.249 101.938 21.5451 101.859 20.6809C101.799 20.0765 102.723 19.4027 103.394 19.4329C104.419 19.4812 105.162 20.8048 104.929 21.8321C106.673 20.5872 104.718 17.8646 105.984 16.5562C105.645 14.7432 102.016 15.1058 103.107 17.3237C103.73 17.1515 103.711 16.6378 104.355 16.6529C106.135 16.6952 105.098 19.4148 103.588 19.3392C101.865 19.2516 100.762 16.6438 102.052 14.9275C101.503 14.5014 101.584 13.1689 102.052 12.7216C100.965 11.658 99.9373 10.1683 100.327 7.92616C97.7556 8.18301 96.8733 6.7628 95.5377 5.80793ZM100.62 9.83589C101.481 9.35544 103.491 8.74203 102.346 7.43664C100.554 7.15865 100.436 8.37942 100.608 9.83589H100.62ZM90.165 7.63003C89.4096 7.21606 88.3883 7.67838 88.5333 8.58792C88.6693 9.43098 89.9777 9.40681 90.6485 9.92957C90.7543 9.08046 90.8026 7.98358 90.1529 7.62097L90.165 7.63003ZM93.9059 8.20416C94.1386 8.38849 94.6765 8.2646 95.0572 8.30086C95.1388 8.09236 95.305 7.97451 95.2476 7.63003C94.5556 7.58773 94.2595 7.92314 93.8938 8.20718L93.9059 8.20416ZM96.0211 8.30086C96.3414 8.20416 97.0636 8.51238 97.0757 8.11049C96.725 7.81546 96.2857 7.64632 95.8277 7.63003C95.6223 7.83551 95.9486 8.05912 96.003 8.30086H96.0211ZM95.447 8.30086C95.2566 8.71786 94.8608 8.92938 94.6795 9.35544C95.3594 9.86611 95.2838 10.8482 95.3503 12.2321C95.4349 14.4773 95.6887 18.7832 95.3503 20.288C94.8245 22.6238 91.1531 20.702 93.2351 19.4238C93.7971 21.0948 95.45 19.0219 94.193 18.2726C92.1352 17.9069 91.7273 20.1279 92.4676 21.4393C93.8334 22.5936 95.8308 21.9016 96.0151 20.288C96.3777 17.1515 95.6827 12.1445 96.0151 9.92957C96.0544 9.6274 96.4412 9.65459 96.3988 9.25875C95.9547 9.05629 95.9003 8.47007 95.4289 8.30086H95.447ZM92.9541 9.06838C93.4648 9.39774 94.5344 9.2799 94.6795 8.68462C93.9271 8.64836 93.2079 8.43079 92.936 9.06838H92.9541ZM96.4079 8.87499C96.692 9.26479 97.4716 9.15298 98.1333 9.17716C98.2028 8.33108 96.4442 8.45799 96.3898 8.87801L96.4079 8.87499ZM92.38 9.92957C92.806 10.129 93.6853 9.95676 93.8183 9.54581C93.2834 9.6425 92.3195 9.28594 92.3588 9.93259L92.38 9.92957ZM98.7256 9.92957C98.7256 9.34335 97.9037 9.60322 97.3839 9.54581C97.4897 9.98094 98.1363 9.90842 98.6893 9.93259L98.7256 9.92957ZM101.889 9.54581C99.8678 10.3194 101.986 12.4436 103.041 12.9996C102.463 12.0085 102.225 10.7152 101.856 9.54883L101.889 9.54581ZM88.3641 13.19C89.6634 12.767 91.5097 10.2015 89.325 9.63948C89.2071 11.0657 88.9291 12.2895 88.3308 13.193L88.3641 13.19ZM91.8179 11.0748H92.8725C92.8725 10.5883 92.4494 10.5369 92.0083 10.5007C91.8421 10.6427 91.9116 10.96 91.7847 11.0839L91.8179 11.0748ZM94.5042 11.0748H94.9847C95.0242 10.878 94.9897 10.6736 94.888 10.5007H94.5042C94.4553 10.5892 94.4269 10.6875 94.4211 10.7885C94.4154 10.8894 94.4324 10.9904 94.471 11.0839L94.5042 11.0748ZM96.2296 10.5943C96.2075 10.9368 96.3676 11.097 96.7101 11.0748C96.8118 10.9018 96.8463 10.6974 96.8068 10.5007C96.5977 10.4534 96.3785 10.4903 96.1964 10.6034L96.2296 10.5943ZM98.3448 11.0748C98.7649 11.0748 99.2514 11.1413 99.3027 10.7726C99.1124 10.3163 98.227 10.5037 98.3056 11.0839L98.3448 11.0748ZM91.4976 11.5492C91.5762 11.8212 91.3616 11.797 91.4009 12.0297C91.7756 12.2321 92.5038 12.078 93.0326 12.1264C93.5252 11.1624 92.1563 11.4253 91.4976 11.5492ZM94.9514 12.1233C94.9514 11.8484 95.0028 11.4948 94.8548 11.3558H94.5526C94.3803 11.6278 94.3834 12.3349 94.9484 12.1536L94.9514 12.1233ZM96.6768 12.1233C96.7706 12.0213 96.8303 11.8925 96.8476 11.755C96.865 11.6175 96.8391 11.478 96.7735 11.3558H96.3898C96.2357 11.5734 96.1722 12.2986 96.6768 12.1536V12.1233ZM98.1152 11.4525C98.088 11.5713 98.0912 11.6951 98.1245 11.8123C98.1577 11.9296 98.22 12.0365 98.3056 12.1233C98.748 12.0426 99.1978 12.0102 99.6472 12.0266C99.635 11.7916 99.5699 11.5623 99.4568 11.3558C99.0187 11.4132 98.4023 11.2742 98.1152 11.4676V11.4525ZM91.2075 13.0842C91.827 13.0329 92.661 13.1961 93.1263 12.9876V12.5071C92.5431 12.3953 90.7301 12.1536 91.2075 13.0994V13.0842ZM94.758 13.0842C95.033 13.0842 94.9333 12.6854 94.9484 12.4134H94.5647C94.4257 12.5796 94.3682 13.187 94.758 13.0994V13.0842ZM96.7735 13.0842C96.6889 12.7337 96.9428 12.5736 96.7735 12.4134H96.3898C96.1873 12.6763 96.2508 13.2746 96.7735 13.0994V13.0842ZM98.2119 13.0842C98.8918 12.8909 99.8194 13.4348 99.9373 12.6038C99.6532 12.217 98.7014 12.498 98.1243 12.4134C98.1152 12.6824 98.0789 12.9755 98.2119 13.0994V13.0842ZM102.24 14.6193C102.844 14.5528 103.189 14.2265 103.775 14.1388C103.586 13.8642 103.344 13.6296 103.064 13.4486C102.784 13.2676 102.471 13.1438 102.143 13.0842C101.959 13.5919 101.85 14.2688 102.24 14.6314V14.6193ZM87.7567 14.4289C88.3611 14.4561 88.6632 14.8066 89.2917 14.8127C89.404 14.5724 89.4622 14.3104 89.4622 14.0452C89.4622 13.7799 89.404 13.5179 89.2917 13.2776C88.9652 13.3445 88.6578 13.4837 88.3922 13.6851C88.1265 13.8864 87.9094 14.1447 87.7567 14.441V14.4289ZM98.1152 13.471V13.8548C98.4415 14.1842 99.6563 14.0784 100.131 13.9515C100.336 12.8395 98.7679 13.5073 98.1152 13.4801V13.471ZM91.0051 14.1539C91.7031 14.1147 92.5673 14.2446 93.1203 14.0572V13.4831C92.5945 13.2746 91.691 13.4408 91.0051 13.3864C91.0383 13.7853 90.86 13.8397 91.0051 14.1539ZM94.4589 13.4831C94.4378 13.8548 94.4982 14.1479 94.9394 14.0572V13.3864C94.777 13.3545 94.6086 13.3881 94.471 13.4801L94.4589 13.4831ZM96.3777 14.0572H96.7615C96.8106 13.9522 96.836 13.8377 96.836 13.7218C96.836 13.6059 96.8106 13.4914 96.7615 13.3864H96.3777C96.3414 13.604 96.1994 13.8759 96.3898 14.0572H96.3777ZM98.2965 15.0151C98.7618 14.6797 100.155 15.275 100.312 14.6314C99.7439 14.1177 99.0368 14.5498 98.2965 14.3292C98.2283 14.431 98.1926 14.5511 98.1943 14.6736C98.1959 14.7961 98.2347 14.9152 98.3056 15.0151H98.2965ZM90.8147 15.0151C91.6003 14.8731 93.0175 15.3626 93.2139 14.6314C92.7909 14.444 90.6817 14.0119 90.8238 15.0151H90.8147ZM96.3777 15.0151C96.8158 15.0514 96.8763 14.713 96.7615 14.441H96.3777V15.0151ZM102.228 15.2055C101.581 16.0002 101.581 18.8014 103.092 18.0852C102.394 17.2119 102.376 15.6678 103.394 15.1118C103.751 14.9577 104.337 15.0333 104.832 15.0151C105.966 15.1934 105.739 16.7285 107.038 16.7405C106.748 14.8489 103.612 13.5889 102.24 15.2085L102.228 15.2055ZM94.5556 15.0151H94.9394V14.5347H94.5556V15.0151ZM87.7446 14.713C86.1431 14.5468 84.9556 15.6467 84.5809 17.1122C85.7896 16.9279 85.8409 15.1058 87.4576 15.1934C88.8566 15.269 89.4217 17.1968 88.5121 18.2635C88.7388 18.2937 88.6904 18.5959 88.9926 18.5657C90.5911 17.3268 89.7208 14.9305 87.7567 14.7281L87.7446 14.713ZM90.718 15.6708C90.8691 16.254 93.0689 16.2903 93.2109 15.6708C93.0931 15.0816 91.0715 15.2962 90.7301 15.689L90.718 15.6708ZM98.1998 15.973C98.8857 15.828 100.179 16.2903 100.406 15.6708V15.4775C100.022 15.0635 98.8948 15.3898 98.1998 15.2871V15.973ZM98.1998 16.9309C98.9129 16.8765 99.8497 17.0457 100.406 16.8342V16.3538C99.4417 16.4595 98.0366 15.831 98.2119 16.9339L98.1998 16.9309ZM90.718 16.4505C90.7966 17.4809 92.4918 16.8765 93.2109 16.7526C92.8634 16.0335 91.5429 16.4686 90.7301 16.4535L90.718 16.4505ZM102.995 18.753C104.101 19.3725 105.452 18.2151 104.721 17.0276C103.455 16.9037 103.515 18.1154 103.007 18.756L102.995 18.753ZM105.775 17.505C106.845 21.0344 104.479 23.2796 103.089 24.8901C105.225 23.2977 107.863 20.8501 106.927 17.1213C106.722 17.0356 106.493 17.0279 106.283 17.0997C106.073 17.1716 105.897 17.3179 105.787 17.5111L105.775 17.505ZM98.1968 17.8072C98.7528 17.6259 100.279 18.2121 100.403 17.3268C99.6714 17.4386 97.9913 16.8886 98.2119 17.7981L98.1968 17.8072ZM86.687 17.505C86.264 18.7923 88.0256 19.7351 88.7025 18.8467C88.0347 18.4539 87.938 16.7496 86.7021 17.5111L86.687 17.505ZM90.715 17.4083V17.7921C91.3435 17.8948 92.8664 18.0943 93.2079 17.6017C92.8967 17.088 91.3495 17.3237 90.7301 17.4144L90.715 17.4083ZM94.5526 17.7921H95.033C95.033 17.4597 94.9514 17.2361 94.5526 17.3116V17.7921ZM96.3656 17.7921C96.9911 17.9855 96.9911 17.1183 96.3656 17.3116V17.7921ZM84.3754 17.8888C84.3391 21.6659 86.3516 23.3944 88.6058 24.8901C87.4757 23.476 85.8863 22.4939 85.6324 20.3817C85.5206 19.4752 86.0102 18.2272 85.6324 17.5987C85.537 17.5219 85.4253 17.468 85.3058 17.4412C85.1864 17.4143 85.0623 17.4152 84.9432 17.4438C84.8242 17.4724 84.7132 17.5279 84.619 17.6061C84.5247 17.6843 84.4497 17.7831 84.3996 17.8948L84.3754 17.8888ZM98.1877 18.753C99.0942 18.6775 99.6653 18.7047 100.303 18.6563C100.575 17.7861 97.8191 17.7105 98.2119 18.756L98.1877 18.753ZM96.3747 18.753C96.4244 18.7799 96.4802 18.7934 96.5367 18.7922C96.5932 18.791 96.6485 18.7752 96.697 18.7463C96.7455 18.7173 96.7857 18.6763 96.8137 18.6271C96.8416 18.578 96.8562 18.5225 96.8562 18.4659C96.8562 18.4094 96.8416 18.3539 96.8137 18.3047C96.7857 18.2556 96.7455 18.2146 96.697 18.1856C96.6485 18.1567 96.5932 18.1409 96.5367 18.1397C96.4802 18.1385 96.4244 18.152 96.3747 18.1789V18.753ZM92.4464 18.2726H90.8147C90.7029 19.3332 92.5159 19.0461 92.4555 18.2786L92.4464 18.2726ZM95.036 18.6563V18.2726H94.6614C94.6569 18.3244 94.6636 18.3765 94.6813 18.4254C94.6989 18.4744 94.7269 18.5189 94.7633 18.5559C94.7998 18.593 94.8439 18.6217 94.8926 18.6401C94.9412 18.6584 94.9933 18.666 95.0451 18.6624L95.036 18.6563ZM98.2119 19.7079C98.8525 19.9194 99.3692 19.6807 100.025 19.8046C100.107 19.5961 100.273 19.4782 100.218 19.1337C99.6956 19.1035 97.9037 18.5959 98.2119 19.7079ZM96.6768 19.8046C96.9518 19.8046 96.8521 19.4057 96.8672 19.1337H96.4835C96.3445 19.2939 96.287 19.9013 96.6768 19.8136V19.8046ZM91.5943 19.9013C91.6956 19.8226 91.7761 19.7203 91.8288 19.6034C91.8814 19.4865 91.9047 19.3584 91.8965 19.2304H91.0051C90.9325 19.7351 91.1682 19.9164 91.5913 19.9073L91.5943 19.9013ZM103.968 19.998C103.177 19.6958 101.989 20.0523 102.337 20.8622C103.352 21.0525 104.452 21.4846 104.062 22.781C105.023 22.2099 104.703 20.557 103.965 20.01L103.968 19.998ZM88.1405 21.533C88.5877 21.1795 89.464 21.4303 89.4851 20.7655C89.5123 19.859 87.8685 20.0795 87.4697 20.5751C86.7777 21.4303 87.0194 22.5664 87.8534 23.2614C87.6993 22.367 87.515 22.0316 88.1405 21.539V21.533ZM94.5677 20.6688C94.8699 20.6688 94.9333 20.3968 94.9514 20.0947C94.6311 20.0886 94.5042 20.2941 94.5677 20.6748V20.6688ZM96.1964 20.6688C96.3702 20.7713 96.5758 20.8057 96.7735 20.7655C96.9065 20.6416 96.8672 20.3485 96.8702 20.0947C96.3414 19.9889 96.278 20.3424 96.1964 20.6748V20.6688ZM98.3116 20.7655C98.8404 20.7171 99.5686 20.8712 99.9433 20.6688C99.8648 20.3968 100.079 20.421 100.04 20.1883C99.6049 19.9828 98.8072 20.143 98.227 20.0916C98.2119 20.3545 98.1756 20.6476 98.3056 20.7715L98.3116 20.7655ZM91.2136 20.5751C91.3979 20.7715 91.4885 20.9075 91.7877 20.7655C91.8275 20.5687 91.793 20.3642 91.691 20.1913C91.3767 20.1702 91.2257 20.3122 91.2075 20.5781L91.2136 20.5751ZM98.3116 21.6297C98.6138 21.7294 99.1154 21.5693 99.6533 21.6297C99.6533 21.4031 99.8194 21.3487 99.7499 21.0556C99.1063 21.0797 97.9067 20.8712 98.3056 21.6357L98.3116 21.6297ZM91.5006 21.3275C91.6789 21.3275 91.5611 21.6539 91.691 21.7113C91.9932 21.6629 92.0657 21.9198 92.2651 21.7113C92.3951 21.2429 91.6729 20.9166 91.4976 21.3456L91.5006 21.3275ZM95.8157 21.7113C96.2901 21.539 96.8733 21.9591 96.9669 21.3275C96.8914 21.3064 96.8551 21.2459 96.8702 21.1371C96.2719 21.1009 95.7673 21.1402 95.8126 21.7294L95.8157 21.7113ZM94.6644 22.4788C95.024 22.8414 96.3596 22.6812 96.8702 22.5755V22.1253C96.4019 22.0346 94.9122 21.8231 94.6614 22.4969L94.6644 22.4788ZM99.1728 22.6692C99.2574 22.4667 99.475 22.3851 99.475 22.095C99.2423 21.9107 98.7044 22.0346 98.3237 21.9983C98.2572 22.5906 98.7014 22.648 99.1637 22.6903L99.1728 22.6692ZM93.226 22.2854C93.0175 21.9832 92.3648 22.1222 91.8844 22.095C91.8451 23.0318 92.9511 22.787 93.223 22.3066L93.226 22.2854ZM102.34 23.1496C101.977 22.4939 100.989 22.1827 100.708 22.9592C100.427 23.7358 101.191 24.1679 101.282 24.878C101.249 25.1983 101.004 25.3041 101.092 25.7423C101.901 25.295 102.466 24.5789 102.337 23.1708L102.34 23.1496ZM90.9265 25.9326C90.1862 24.6967 91.833 23.618 90.8298 22.6722C88.7629 22.3912 89.4761 25.7815 90.9205 25.9508L90.9265 25.9326ZM94.7641 23.1496C94.6855 23.4216 94.9001 23.3974 94.8608 23.6301C95.45 23.5999 96.4351 24.0561 96.7796 23.1496C96.3445 22.8414 95.2143 22.9441 94.758 23.1708L94.7641 23.1496ZM97.8281 23.6361C98.4718 23.8023 99.2211 23.2614 98.789 22.9653C98.4627 23.198 97.8704 23.1496 97.8281 23.6361ZM108.187 26.2257C109.794 26.3557 111.405 23.4488 109.241 22.9653C109.906 24.4097 108.737 25.4099 108.187 26.2378V26.2257ZM92.4555 23.1708C92.3618 23.7449 93.4194 23.9715 93.7035 23.5545C93.4225 23.3339 92.8695 22.9532 92.4555 23.1708ZM83.8224 26.7183C83.2634 25.8994 82.4536 25.3373 82.2874 24.1287C82.3932 24.032 82.7799 23.4427 82.3841 23.4578C80.4623 24.3704 82.091 26.6881 83.8224 26.7183ZM93.1203 24.2254C93.9936 25.2558 96.6074 24.3674 97.9158 24.6091C97.9883 24.3311 98.369 24.3613 98.2995 23.9383C96.3112 24.2405 95.0028 23.8779 93.1203 24.2254ZM105.404 25.7513C104.693 25.9689 104.219 26.4221 103.591 26.7092C104.195 27.374 104.766 28.0932 105.404 28.7247C105.984 26.5853 108.625 26.5098 108.951 24.1196C107.519 23.6845 106.434 25.1681 105.404 25.7513ZM85.7412 25.561C84.9314 25.0654 84.043 24.174 82.9582 24.6031C83.2966 26.9812 86.0162 26.9812 86.6991 29.0148C87.3035 28.4346 87.6842 27.6339 88.3278 27.096C87.4817 26.6578 86.5934 26.0898 85.7412 25.567V25.561ZM94.1809 25.1772C94.9937 25.709 96.6829 25.8722 97.251 24.9868C96.278 25.1077 94.8396 24.7542 94.1809 25.1832V25.1772ZM103.294 27.096C100.351 26.0293 97.7435 28.8758 97.5531 31.2206C98.227 30.8067 98.3025 29.7974 98.8011 29.2052C99.6593 28.6884 100.312 27.9693 101.871 28.1506C101.983 28.4527 102.476 28.3863 102.542 28.7247C102.702 29.045 102.575 29.6493 102.732 29.9727C105.401 30.441 104.772 27.6369 103.294 27.102V27.096ZM95.9093 27.096C95.0028 28.0025 94.0631 30.0029 95.3352 31.2206C95.8758 31.3605 96.4467 31.3267 96.9669 31.1239C97.9369 29.7491 97.1936 27.6127 95.9093 27.102V27.096ZM88.6209 27.3982C88.2058 27.6058 87.8691 27.9424 87.6616 28.3576C87.454 28.7727 87.3866 29.244 87.4697 29.7007C87.6661 29.7279 87.66 29.9576 87.7718 30.0845C88.2553 30.293 88.9352 30.4531 89.4036 30.1812C89.4882 29.879 89.4036 29.5255 89.5003 29.0299C89.6606 28.7957 89.8751 28.6037 90.1255 28.4701C90.3759 28.3365 90.6548 28.2652 90.9386 28.2624C92.6851 28.208 93.9905 29.9545 94.5828 31.2358C94.7218 29.19 91.5429 26.0746 88.6179 27.3891L88.6209 27.3982ZM107.612 29.604C106.898 29.6065 106.21 29.3313 105.694 28.8365C105.476 29.9334 107.041 30.1449 107.625 29.595L107.612 29.604ZM110.105 31.1391C111.498 31.1391 111.495 28.7972 109.803 29.1236C110.157 29.737 110.42 30.2839 110.105 31.13V31.1391ZM84.3996 30.0845C85.1459 30.4803 86.5933 30.3443 86.4151 29.2203C85.8654 29.7345 85.1514 30.0375 84.3996 30.0754V30.0845ZM82.0003 31.7162C81.677 30.8701 81.9248 30.2295 82.3025 29.601C80.84 29.2626 80.3777 31.5289 82.0003 31.7071V31.7162ZM88.8113 32.387C87.651 32.2601 87.2853 30.713 86.9983 29.9878C87.0164 31.8884 88.0528 33.4235 89.9716 33.3449C92.1382 33.2543 92.9934 29.7823 89.9716 30.1782C90.6153 31.4443 90.0079 32.5079 88.8113 32.378V32.387ZM100.227 31.3324C100.227 34.0067 105.63 33.4477 104.926 30.3746C104.95 32.4898 101.146 32.9037 102.049 29.9908C100.925 29.6101 100.227 30.4531 100.224 31.3234L100.227 31.3324ZM102.433 30.2779C101.611 32.5109 104.832 31.9579 104.639 30.0875C103.998 30.4501 103.297 30.4803 102.43 30.2688L102.433 30.2779ZM89.7692 31.7948C89.848 31.5769 89.8801 31.3448 89.8635 31.1137C89.8468 30.8825 89.7817 30.6575 89.6725 30.4531C88.9322 30.8369 88.1798 30.6495 87.4666 30.3564C87.6812 31.4201 88.6723 32.5049 89.7692 31.7948ZM93.223 31.8915C94.9212 31.7646 97.121 32.1453 98.4989 31.7011C97.4534 31.544 94.5042 31.402 93.223 31.8975V31.8915ZM93.8938 32.2752C93.8938 32.5774 94.3834 32.7104 94.758 32.7557C95.731 32.8735 97.7012 32.7829 97.9218 32.1816C96.3112 32.1574 95.0058 32.2359 93.8938 32.2813V32.2752ZM97.1543 35.9194C97.4565 35.9194 97.6317 35.7563 98.0185 35.8227C97.668 34.8618 97.4142 33.8133 96.8672 33.0397H96.6768C96.5012 34.0283 96.6708 35.0472 97.1573 35.9255L97.1543 35.9194ZM92.0717 33.8042C91.7514 36.8259 95.172 35.3151 94.8517 33.2301C94.7278 33.2301 94.7188 33.1062 94.5496 33.1334C94.2776 34.2122 93.0206 34.3904 92.0717 33.8163V33.8042ZM94.3743 35.9194H95.0451C95.2446 35.2154 95.7008 33.774 95.3473 33.1364C95.0512 34.1094 94.6311 34.9464 94.3743 35.9255V35.9194ZM95.5256 35.9194H96.5802C96.414 34.9676 96.4381 33.8254 96.003 33.1364H95.8126C95.722 34.0762 95.6041 34.9827 95.5377 35.9255L95.5256 35.9194ZM99.5535 35.439C100.067 35.2909 100.46 34.4992 100.224 33.7136C99.5475 33.8526 99.3178 34.2242 98.6893 34.0973C98.0608 33.9704 98.0578 33.1908 97.4413 33.1394C97.5834 34.3209 98.23 35.8288 99.5535 35.448V35.439ZM95.5377 41.6819C94.7218 42.4645 93.3892 42.7304 92.4676 43.4073C90.6908 44.8668 89.3038 47.1542 87.8625 49.5474C86.4876 51.8318 84.8226 54.1797 84.6957 57.0292C84.6504 58.0868 84.7682 58.9389 85.3665 59.5221C87.0919 59.7427 87.5119 58.6609 88.5303 58.1805C90.9295 55.2736 92.948 51.9829 93.9029 47.6286C93.4194 47.3053 93.0387 47.683 92.5613 47.3264C91.5218 46.5891 92.0657 44.1053 93.2321 43.9693C94.0026 44.1899 94.1809 45.0027 94.48 45.6947C95.4621 45.1931 96.0755 44.5313 96.973 43.6792C97.6377 43.0507 98.5231 41.7967 99.8497 42.0475C100.711 42.2107 101.152 43.5583 101.194 44.35C101.306 46.6194 99.9403 48.378 99.4689 50.0097C101.089 48.5382 102.605 46.713 104.458 45.2143C106.222 43.785 108.162 42.0928 111.075 41.9538C112.218 42.3678 111.903 43.9089 111.172 45.1206C110.625 46.0271 109.728 46.9336 108.966 47.9036C108.262 48.8101 107.646 49.7801 106.951 50.7803C105.564 52.7807 103.896 54.9805 103.403 57.0141C103.083 58.3316 103.488 59.9452 104.554 60.1809C106.159 60.5344 108.761 58.806 109.734 57.8783C111.311 56.3674 112.665 54.1555 112.897 52.137C113.039 50.9283 112.559 50.2545 112.417 49.4507C114.777 51.1519 113.178 55.2222 111.746 57.1229C110.172 59.2139 107.186 61.0723 105.032 61.0511C102.352 61.03 100.499 58.8997 100.907 55.6785C101.252 52.9287 103.343 50.596 105.225 48.7708C107.22 46.8399 109.649 45.2626 110.788 43.1111C109.809 42.4343 108.673 43.2804 107.912 43.6853C101.989 46.8128 98.1605 52.9317 95.0572 58.8392C93.776 58.9329 92.8816 59.4133 91.7968 59.7034C93.9331 56.1076 96.3294 52.1098 98.1424 47.8099C98.7467 46.3988 99.484 44.7882 99.197 43.1111C97.7647 43.4919 97.2963 44.5042 96.1269 45.5104C95.5497 46.0059 94.5647 46.571 94.4015 47.1421C94.2141 47.7978 94.4408 48.7738 94.3048 49.4447C93.5554 53.1584 91.1954 56.999 88.8385 58.942C87.104 60.3773 83.6169 60.8819 82.9884 57.8874C82.5624 55.8689 83.3571 53.7083 84.1397 51.7472C85.8137 47.5652 89.8387 42.3436 94.8819 41.6758C95.0693 41.6547 95.444 41.706 95.5377 41.6819ZM93.7246 46.574C93.8817 46.0573 93.6581 45.2868 93.4224 44.8486C92.1926 44.7006 92.244 47.0545 93.7035 46.574H93.7246Z" fill="white"/>
</g>
<defs>
<clipPath id="clip0_988_9404">
<rect width="113.414" height="82.4629" fill="white" transform="translate(0.196289 0.435547)"/>
</clipPath>
</defs>
</svg>
