<?xml version="1.0" encoding="UTF-8" standalone="no"?>
<!-- Created with Inkscape (http://www.inkscape.org/) -->

<svg
   version="1.1"
   id="svg2"
   width="473.73334"
   height="93.559998"
   viewBox="0 0 473.73334 93.559998"
   sodipodi:docname="SeaPinesLogo-no-cloud-R-horiz-rev.eps"
   xmlns:inkscape="http://www.inkscape.org/namespaces/inkscape"
   xmlns:sodipodi="http://sodipodi.sourceforge.net/DTD/sodipodi-0.dtd"
   xmlns="http://www.w3.org/2000/svg"
   xmlns:svg="http://www.w3.org/2000/svg">
  <defs
     id="defs6" />
  <sodipodi:namedview
     id="namedview4"
     pagecolor="#ffffff"
     bordercolor="#000000"
     borderopacity="0.25"
     inkscape:showpageshadow="2"
     inkscape:pageopacity="0.0"
     inkscape:pagecheckerboard="0"
     inkscape:deskcolor="#d1d1d1" />
  <g
     id="g8"
     inkscape:groupmode="layer"
     inkscape:label="ink_ext_XXXXXX"
     transform="matrix(1.3333333,0,0,-1.3333333,0,93.56)">
    <g
       id="g10"
       transform="scale(0.1)">
      <path
         d="m 1019.9,398.867 c 0,-10.82 0,-17.941 13.19,-18.742 5.54,-0.262 9.24,-0.527 9.24,-4.48 0,-3.957 -3.43,-3.957 -5.54,-3.957 -8.71,0 -22.43,1.054 -31.14,1.054 -4.48,0 -25.849,-1.054 -30.865,-1.054 -2.109,0 -5.543,0 -5.543,3.957 0,3.691 3.696,3.953 9.238,4.48 13.188,0.801 13.188,7.922 13.188,18.215 v 122.683 c 0,6.856 -2.109,6.856 -7.387,6.856 -15.832,0 -33.242,0 -46.699,-25.066 -2.371,-4.219 -3.691,-5.274 -6.07,-5.274 -2.11,0 -3.426,1.844 -3.426,3.426 0,1.32 0.527,2.902 0.789,4.23 l 10.816,37.196 c 0.797,3.164 1.586,4.746 3.961,4.746 2.11,0 2.899,-1.317 3.164,-3.692 1.321,-7.117 6.067,-7.382 11.875,-7.382 h 84.689 c 27.18,0 28.5,3.429 30.34,8.175 0.8,2.11 1.59,3.692 3.7,3.692 3.69,0 3.69,-4.219 3.69,-10.547 l -1.84,-32.188 c -0.27,-5.285 -0.8,-8.449 -4.23,-8.449 -1.32,0 -3.16,0.266 -4.22,5.801 -4.48,25.332 -17.41,25.332 -34.56,25.332 -15.04,0 -16.36,0 -16.36,-8.699 V 398.867"
         style="fill:#ffffff;fill-opacity:1;fill-rule:nonzero;stroke:none"
         id="path12" />
      <path
         d="m 1086.12,506.25 c 0,18.73 -0.53,21.367 -13.45,23.211 -2.11,0.266 -3.7,1.055 -3.7,3.691 0,2.383 1.85,3.438 3.7,3.703 12.92,2.372 20.84,5.536 28.23,9.493 3.43,1.843 6.07,3.425 7.91,3.425 3.69,0 3.69,-2.636 3.69,-3.953 0,-1.847 -0.79,-3.164 -0.79,-17.675 v -49.602 c 0,-2.371 0,-4.48 1.59,-4.48 0.79,0 1.58,0.789 1.85,1.054 16.09,15.567 27.43,18.992 39.31,18.992 37.46,0 37.46,-28.23 37.46,-38.789 v -56.718 c 0,-14.774 0,-17.938 11.35,-19.532 6.59,-0.789 7.91,-2.109 7.91,-4.218 0,-3.164 -0.79,-3.164 -8.44,-3.164 -3.43,0 -7.13,1.054 -23.75,1.054 -11.34,0 -23.21,-1.054 -27.44,-1.054 -1.84,0 -4.48,0 -4.48,3.429 0,2.371 1.85,3.426 7.91,4.219 11.35,1.59 11.35,4.492 11.35,19.266 v 52.5 c 0,8.711 0,29.023 -24.01,29.023 -2.11,0 -30.61,0 -30.61,-26.387 v -55.136 c 0,-14.774 0,-17.676 11.35,-19.266 6.6,-0.793 7.92,-2.109 7.92,-4.484 0,-3.164 -2.65,-3.164 -4.49,-3.164 -4.22,0 -15.83,1.054 -27.7,1.054 -10.82,0 -23.22,-1.054 -27.44,-1.054 -1.85,0 -4.49,0 -4.49,3.429 0,2.371 1.85,3.426 7.92,4.219 11.34,1.59 11.34,4.492 11.34,19.266 V 506.25"
         style="fill:#ffffff;fill-opacity:1;fill-rule:nonzero;stroke:none"
         id="path14" />
      <path
         d="m 1269.75,459.285 c 11.35,0 17.94,5.801 17.94,12.656 0,15.567 -17.94,16.094 -21.89,16.094 -23.75,0 -31.93,-21.629 -31.93,-25.847 0,-2.903 1.06,-2.903 7.12,-2.903 z m -32.45,-8.183 c -4.49,0 -6.86,-0.262 -6.86,-13.985 0,-29.551 19.53,-52.234 46.7,-52.234 11.87,0 22.69,4.48 29.02,10.547 3.96,3.965 4.22,4.226 5.81,4.226 1.84,0 2.37,-1.582 2.37,-2.371 0,-3.965 -18.47,-27.176 -51.98,-27.176 -34.82,0 -61.21,22.946 -61.21,59.625 0,39.043 29.55,64.375 65.44,64.375 39.84,0 48.28,-29.285 48.28,-38.261 0,-4.746 -2.9,-4.746 -7.13,-4.746 h -70.44"
         style="fill:#ffffff;fill-opacity:1;fill-rule:nonzero;stroke:none"
         id="path16" />
      <path
         d="m 845.402,94.0703 c -40.058,0 -72.41,13.8677 -81.652,20.5467 -5.652,4.102 -6.164,11.301 -6.164,24.133 0,2.059 0,27.734 1.539,46.219 0,2.051 0.516,9.25 6.68,9.25 4.621,0 6.164,-4.11 7.187,-8.731 9.758,-45.715 44.68,-78.066 81.141,-78.066 21.57,0 61.109,15.41 61.109,57.012 0,40.046 -34.922,59.57 -71.894,76.511 -41.594,18.489 -82.168,38.516 -82.168,92.95 0,47.246 35.949,88.332 101.168,88.332 29.785,0 60.086,-8.215 67.277,-11.809 6.16,-3.594 6.16,-8.223 6.16,-53.406 0,-11.301 0,-15.41 -7.187,-15.41 -5.137,0 -7.192,3.086 -12.325,19.003 -6.164,20.028 -15.41,49.297 -58.031,49.297 -42.109,0 -55.976,-29.269 -55.976,-49.297 0,-36.464 29.785,-49.308 70.867,-66.25 28.762,-12.324 82.68,-37.492 82.68,-95.519 0,-57 -42.11,-104.7657 -110.411,-104.7657"
         style="fill:#ffffff;fill-opacity:1;fill-rule:nonzero;stroke:none"
         id="path18" />
      <path
         d="m 1079.06,267.656 c 22.09,0 34.92,11.289 34.92,24.649 0,30.293 -34.92,31.316 -42.62,31.316 -46.22,0 -62.14,-42.109 -62.14,-50.32 0,-5.645 2.05,-5.645 13.87,-5.645 z m -63.16,-15.929 c -8.73,0 -13.36,-0.508 -13.36,-27.215 0,-57.52 38.01,-101.68 90.9,-101.68 23.11,0 44.17,8.731 56.49,20.535 7.71,7.707 8.22,8.223 11.3,8.223 3.59,0 4.62,-3.086 4.62,-4.617 0,-7.703 -35.95,-52.9027 -101.17,-52.9027 -67.785,0 -119.137,44.6797 -119.137,116.0667 0,76.004 57.517,125.301 127.357,125.301 77.54,0 93.98,-57 93.98,-74.461 0,-9.25 -5.65,-9.25 -13.87,-9.25 H 1015.9"
         style="fill:#ffffff;fill-opacity:1;fill-rule:nonzero;stroke:none"
         id="path20" />
      <path
         d="m 1274.2,211.16 c 0,5.137 -3.08,5.645 -5.65,5.645 -7.18,0 -20.02,-6.668 -28.24,-10.782 -32.35,-15.41 -32.35,-34.921 -32.35,-45.195 0,-24.648 11.81,-33.887 23.11,-33.887 23.11,0 43.13,18.489 43.13,54.434 z m 0,69.328 c 0,17.977 -1.53,42.625 -25.67,42.625 -29.79,0 -41.08,-31.328 -45.2,-43.133 -8.21,-23.117 -37.99,-25.167 -38.51,-25.167 -5.65,0 -11.3,3.593 -11.3,10.273 0,17.461 32.35,70.352 110.41,70.352 48.28,0 60.09,-16.434 60.09,-37.489 V 154.668 c 0,-15.918 1.54,-28.75 15.92,-28.75 5.65,0 10.78,2.051 14.89,5.125 5.65,4.629 6.17,5.137 8.73,5.137 3.08,0 4.62,-3.075 4.62,-4.617 0,-12.325 -31.32,-36.4653 -53.92,-36.4653 -20.03,0 -29.78,15.4103 -35.95,27.7343 -4.62,9.754 -5.64,9.754 -7.19,9.754 -1.02,0 -3.59,-2.051 -3.59,-2.051 -21.57,-17.461 -49.3,-36.4647 -72.41,-36.4647 -37.49,0 -40.06,35.4417 -40.06,43.1367 0,37.488 27.22,59.578 106.31,90.898 12.32,5.137 12.83,9.247 12.83,18.485 v 33.898"
         style="fill:#ffffff;fill-opacity:1;fill-rule:nonzero;stroke:none"
         id="path22" />
      <path
         d="m 1459.59,277.918 c 0,-8.73 0,-10.781 6.17,-13.348 8.73,-4.621 23.62,-5.644 34.41,-5.644 27.72,0 66.76,21.054 66.76,71.375 0,45.195 -33.9,76.008 -74.98,76.008 -29.79,0 -32.36,-14.895 -32.36,-40.059 z m -54.94,88.852 c 0,21.05 0,34.918 -26.19,36.453 -10.79,1.035 -17.98,1.035 -17.98,8.73 0,7.195 2.05,7.195 19,7.188 7.71,0 45.19,-2.051 53.41,-2.051 12.32,0 71.38,2.051 84.74,2.058 84.73,0 107.33,-54.441 107.33,-90.898 0,-62.656 -55.98,-90.898 -98.09,-90.898 -12.84,0 -23.62,2.05 -45.19,9.757 -3.08,1.024 -15.41,5.137 -17.46,5.137 -4.63,0 -4.63,-2.57 -4.63,-9.25 v -92.949 c 0,-21.57 0,-35.43 28.25,-36.973 11.3,-0.515 18.49,-1.023 18.49,-8.73 0,-7.1877 -6.68,-7.1877 -10.79,-7.1877 -17.46,0 -45.19,2.0507 -62.65,2.0507 -8.73,0 -51.87,-2.0507 -61.63,-2.0507 -4.1,0 -10.78,0 -10.78,7.6957 0,7.199 7.19,7.707 17.98,8.222 26.19,2.051 26.19,15.403 26.19,36.465 V 366.77"
         style="fill:#ffffff;fill-opacity:1;fill-rule:nonzero;stroke:none"
         id="path24" />
      <path
         d="m 1644.98,364.707 c -16.43,0 -28.76,12.84 -28.76,27.734 0,14.383 11.82,28.243 28.76,28.243 15.92,0 28.25,-12.832 28.25,-28.75 0,-13.36 -11.3,-27.227 -28.25,-27.227 z M 1620.34,246.59 c 0,26.191 -4.63,33.39 -23.11,34.414 -1.55,0 -9.76,0.508 -9.76,6.672 0,3.601 2.05,6.16 8.21,8.222 24.66,8.211 36.47,14.891 45.2,21.055 3.59,2.567 19.51,16.434 23.62,16.434 5.65,0 5.65,-6.68 5.65,-17.977 V 149.539 c 0,-28.25 0,-34.414 22.08,-37.488 12.84,-1.543 15.41,-4.113 15.41,-8.731 0,-6.1637 -5.14,-6.1637 -8.73,-6.1637 -7.7,0 -29.79,2.0507 -53.41,2.0507 -21.57,0 -45.19,-2.0507 -53.92,-2.0507 -3.6,0 -8.73,0 -8.73,6.6717 0,4.629 4.1,6.68 15.4,8.223 22.09,3.074 22.09,8.73 22.09,36.972 v 97.567"
         style="fill:#ffffff;fill-opacity:1;fill-rule:nonzero;stroke:none"
         id="path26" />
      <path
         d="m 1863.75,242.488 c 0,24.133 0,62.649 -50.33,62.649 -15.4,0 -31.32,-5.645 -43.13,-17.461 -7.71,-7.696 -9.76,-16.426 -9.76,-28.75 V 150.047 c 0,-28.758 0,-34.922 22.08,-37.996 12.84,-1.543 15.41,-4.113 15.41,-8.731 0,-6.1637 -5.14,-6.1637 -8.73,-6.1637 -7.7,0 -44.17,2.0507 -53.92,2.0507 -7.71,0 -44.68,-2.0507 -52.9,-2.0507 -4.11,0 -9.24,0 -9.24,6.6717 0,4.629 4.1,6.68 15.4,8.223 22.09,3.074 22.09,8.73 22.09,37.488 v 98.594 c 0,24.14 0,35.441 -15.41,36.465 -8.22,0.511 -13.87,0.511 -13.87,7.187 0,3.086 1.54,5.137 7.19,6.68 3.6,1.027 36.47,14.894 52.38,33.379 3.6,4.113 7.71,9.238 11.3,9.238 4.62,0 5.65,-4.617 5.65,-9.238 V 306.68 c 0,-8.731 0,-10.274 2.05,-10.274 3.08,0 5.65,1.543 7.2,3.086 31.32,29.266 46.73,35.946 75.48,35.946 33.9,0 70.87,-18.485 70.87,-66.25 V 150.047 c 0,-28.758 0,-34.922 22.09,-37.996 12.84,-1.543 15.4,-4.113 15.4,-8.731 0,-6.1637 -5.13,-6.1637 -8.73,-6.1637 -7.7,0 -45.19,2.0507 -53.4,2.0507 -7.71,0 -45.2,-2.0507 -53.93,-2.0507 -3.59,0 -8.73,0 -8.73,6.6717 0,4.629 3.6,6.68 15.41,8.223 22.08,3.074 22.08,8.73 22.08,37.488 v 92.949"
         style="fill:#ffffff;fill-opacity:1;fill-rule:nonzero;stroke:none"
         id="path28" />
      <path
         d="m 2059.92,267.656 c 22.09,0 34.92,11.289 34.92,24.649 0,30.293 -34.92,31.316 -42.62,31.316 -46.22,0 -62.14,-42.109 -62.14,-50.32 0,-5.645 2.05,-5.645 13.86,-5.645 z m -63.16,-15.929 c -8.73,0 -13.36,-0.508 -13.36,-27.215 0,-57.52 38.01,-101.68 90.9,-101.68 23.11,0 44.17,8.731 56.5,20.535 7.69,7.707 8.21,8.223 11.29,8.223 3.6,0 4.62,-3.086 4.62,-4.617 0,-7.703 -35.95,-52.9027 -101.17,-52.9027 -67.79,0 -119.14,44.6797 -119.14,116.0667 0,76.004 57.52,125.301 127.36,125.301 77.54,0 93.98,-57 93.98,-74.461 0,-9.25 -5.65,-9.25 -13.87,-9.25 h -137.11"
         style="fill:#ffffff;fill-opacity:1;fill-rule:nonzero;stroke:none"
         id="path30" />
      <path
         d="m 2140.54,165.965 c 0,1.543 0.52,9.25 7.2,9.25 5.64,0 8.21,-4.621 10.78,-14.387 2.57,-9.238 17.46,-53.914 59.05,-53.914 23.12,0 49.82,15.399 49.82,42.109 0,27.215 -23.63,39.032 -59.06,52.891 -30.3,11.816 -66.75,26.191 -66.75,63.172 0,29.269 23.1,70.352 91.4,70.352 7.71,0 45.71,-5.645 49.82,-5.645 12.84,-1.543 12.84,-7.195 12.84,-15.41 l -2.06,-30.301 c 0,-2.051 -1.03,-8.215 -6.16,-8.215 -3.6,0 -6.17,1.028 -9.24,10.781 -3.09,9.758 -16.96,36.973 -51.36,36.973 -22.08,0 -41.08,-12.324 -41.08,-30.808 0,-20.54 11.3,-25.157 63.16,-46.731 17.46,-7.703 60.6,-25.164 60.6,-69.324 0,-38.516 -31.32,-82.6877 -99.12,-82.6877 -30.81,0 -62.64,12.8437 -64.7,14.3867 -6.16,3.074 -6.16,7.188 -6.16,19.512 l 1.02,37.996"
         style="fill:#ffffff;fill-opacity:1;fill-rule:nonzero;stroke:none"
         id="path32" />
      <path
         d="m 2429.66,286.141 c 0,-17.977 0,-19.004 25.69,-19.004 18.48,0 69.32,0 69.32,64.191 0,18.485 -7.19,73.438 -70.87,73.438 -23.62,0 -24.14,-12.325 -24.14,-32.356 z m -54.94,81.132 c 0,21.055 0,34.922 -25.17,36.465 -11.29,0.52 -18.48,1.028 -18.48,8.215 0,7.195 2.05,7.195 18.99,7.188 5.14,0 30.31,-2.051 36.47,-2.051 13.86,0 82.17,2.051 97.58,2.058 90.89,0 98.59,-62.656 98.59,-80.625 0,-60.085 -52.89,-72.41 -70.35,-76.003 6.68,-4.114 12.84,-7.2 24.65,-28.762 l 49.81,-88.328 c 10.27,-17.981 17.46,-30.813 31.84,-32.871 16.95,-2.051 21.05,-2.571 21.05,-9.239 0,-5.6559 -5.13,-6.1637 -8.73,-6.1637 -6.67,0 -40.05,2.0507 -47.75,2.0507 -4.11,0 -23.12,-2.0507 -27.74,-2.0507 -9.24,0 -11.3,4.6207 -16.94,15.4027 l -62.14,117.089 c -11.3,22.079 -13.87,24.141 -36.97,24.141 -8.73,0 -9.77,-3.086 -9.77,-11.816 v -92.434 c 0,-21.57 0,-35.437 25.69,-36.98 11.29,-0.508 18.48,-1.028 18.48,-8.731 0,-7.1874 -6.68,-6.6717 -10.79,-6.6717 -9.75,0 -59.57,2.0507 -61.62,2.0507 -8.73,0 -50.32,-2.0507 -59.57,-2.0507 -4.11,0 -10.78,-0.5157 -10.78,7.1877 0,7.187 7.7,7.707 18.48,8.215 25.17,2.058 25.17,15.41 25.17,36.98 v 217.734"
         style="fill:#ffffff;fill-opacity:1;fill-rule:nonzero;stroke:none"
         id="path34" />
      <path
         d="m 2723.93,267.656 c 22.08,0 34.92,11.289 34.92,24.649 0,30.293 -34.92,31.316 -42.63,31.316 -46.22,0 -62.13,-42.109 -62.13,-50.32 0,-5.645 2.05,-5.645 13.86,-5.645 z m -63.16,-15.929 c -8.73,0 -13.36,-0.508 -13.36,-27.215 0,-57.52 38,-101.68 90.89,-101.68 23.12,0 44.17,8.731 56.5,20.535 7.7,7.707 8.21,8.223 11.3,8.223 3.59,0 4.62,-3.086 4.62,-4.617 0,-7.703 -35.95,-52.9027 -101.17,-52.9027 -67.79,0 -119.15,44.6797 -119.15,116.0667 0,76.004 57.52,125.301 127.37,125.301 77.54,0 93.97,-57 93.97,-74.461 0,-9.25 -5.64,-9.25 -13.86,-9.25 h -137.11"
         style="fill:#ffffff;fill-opacity:1;fill-rule:nonzero;stroke:none"
         id="path36" />
      <path
         d="m 2809.68,165.965 c 0,1.543 0.52,9.25 7.2,9.25 5.64,0 8.21,-4.621 10.78,-14.387 2.57,-9.238 17.46,-53.914 59.05,-53.914 23.12,0 49.82,15.399 49.82,42.109 0,27.215 -23.63,39.032 -59.06,52.891 -30.3,11.816 -66.75,26.191 -66.75,63.172 0,29.269 23.1,70.352 91.4,70.352 7.71,0 45.71,-5.645 49.82,-5.645 12.84,-1.543 12.84,-7.195 12.84,-15.41 l -2.06,-30.301 c 0,-2.051 -1.03,-8.215 -6.16,-8.215 -3.6,0 -6.17,1.028 -9.24,10.781 -3.09,9.758 -16.95,36.973 -51.36,36.973 -22.08,0 -41.08,-12.324 -41.08,-30.808 0,-20.54 11.3,-25.157 63.16,-46.731 17.46,-7.703 60.6,-25.164 60.6,-69.324 0,-38.516 -31.32,-82.6877 -99.11,-82.6877 -30.81,0 -62.65,12.8437 -64.71,14.3867 -6.16,3.074 -6.16,7.188 -6.16,19.512 l 1.02,37.996"
         style="fill:#ffffff;fill-opacity:1;fill-rule:nonzero;stroke:none"
         id="path38" />
      <path
         d="m 3093.16,105.887 c 37.49,0 69.84,47.754 69.84,108.351 0,35.438 -18.48,109.383 -74.46,109.383 -36.98,0 -67.28,-36.973 -67.28,-99.617 0,-63.684 31.33,-118.117 71.9,-118.117 z m 1.54,-11.8167 c -79.6,0 -126.84,62.6567 -126.84,120.6837 0,58.547 48.27,120.684 124.78,120.684 58.55,0 123.77,-38.516 123.77,-116.063 0,-68.301 -50.33,-125.3047 -121.71,-125.3047"
         style="fill:#ffffff;fill-opacity:1;fill-rule:nonzero;stroke:none"
         id="path40" />
      <path
         d="m 3287.79,305.652 c 0,-3.086 0,-7.187 3.08,-7.187 1.54,0 4.1,3.078 4.62,4.101 1.03,1.543 26.19,30.821 55.98,30.821 18.49,0 36.97,-10.274 36.97,-30.821 0,-21.054 -18.48,-29.265 -31.33,-29.265 -11.3,0 -18.48,4.109 -26.7,13.347 -8.73,9.758 -12.84,10.793 -15.91,10.793 -10.28,0 -25.17,-7.707 -25.17,-50.332 v -97.57 c 0,-21.062 0,-34.922 26.19,-36.465 11.3,-0.515 18.49,-1.023 18.49,-8.73 0,-7.1877 -6.68,-7.1877 -10.79,-7.1877 -8.73,0 -50.33,2.0507 -59.57,2.0507 -7.7,0 -45.19,-2.0507 -53.41,-2.0507 -3.6,0 -8.73,0 -8.73,6.6717 0,4.629 3.6,6.68 15.41,8.223 22.6,3.074 22.6,8.73 22.6,37.488 v 99.113 c 0,32.352 -6.68,33.379 -26.2,34.403 -1.54,0 -6.68,0 -6.68,5.656 0,3.594 2.07,5.644 8.23,7.187 11.8,4.102 41.08,20.028 51.86,31.329 1.03,1.023 12.84,12.832 15.41,12.832 5.13,0 5.65,-4.102 5.65,-8.731 v -25.676"
         style="fill:#ffffff;fill-opacity:1;fill-rule:nonzero;stroke:none"
         id="path42" />
      <path
         d="m 3440.77,169.559 c 0,-23.106 3.07,-46.727 29.78,-46.727 7.71,0 14.89,1.543 32.86,12.84 1.55,1.027 4.11,2.051 5.66,2.051 2.56,0 4.11,-2.567 4.11,-4.618 0,-7.707 -32.87,-39.0347 -70.36,-39.0347 -26.7,0 -51.87,17.4607 -51.87,55.9767 v 147.394 c 0,6.668 -4.11,9.754 -11.82,9.239 -4.1,0 -7.69,-0.508 -11.8,-0.508 -2.57,0 -8.73,0 -8.73,5.644 0,5.137 5.64,8.211 7.7,9.247 l 13.87,7.187 c 12.32,6.164 28.24,20.031 45.19,46.223 2.06,2.566 5.13,6.16 8.73,6.16 1.54,0 6.68,0 6.68,-8.223 v -34.922 c 0,-9.754 2.05,-11.804 12.84,-11.804 h 29.27 c 7.18,0 10.78,1.023 15.41,1.023 4.1,0 7.69,-1.023 6.67,-10.273 -1.03,-9.239 -2.57,-10.782 -9.24,-10.782 -8.73,0 -20.55,1.028 -45.2,1.028 -8.73,0 -9.75,-1.028 -9.75,-11.809 V 169.559"
         style="fill:#ffffff;fill-opacity:1;fill-rule:nonzero;stroke:none"
         id="path44" />
      <path
         d="M 4.23047,344.402 C 1.39844,153.969 164.828,-5.65234 355.016,4.66797 535.23,14.4453 672.438,163.426 669.75,343.871 667.129,519.477 537.051,658.422 362.012,672.605 L 338.77,695.496 308.473,673.129 C 134.531,657.047 6.82813,519.078 4.23047,344.402"
         style="fill:#ffffff;fill-opacity:1;fill-rule:nonzero;stroke:none"
         id="path46" />
      <path
         d="m 238.453,544.547 61.434,10.844 -1.032,-542.5824 -62.468,12.3789 2.066,519.3595"
         style="fill:#9a9898;fill-opacity:1;fill-rule:nonzero;stroke:none"
         id="path48" />
      <path
         d="m 393.852,429.422 h 107.886 l -58.324,-58.336 -207.027,-2.582 -59.883,59.367 217.348,1.551"
         style="fill:#a80c30;fill-opacity:1;fill-rule:nonzero;stroke:none"
         id="path50" />
      <path
         d="m 393.852,429.422 h 107.886 l -58.324,-58.336 -207.027,-2.582 -59.883,59.367 z"
         style="fill:none;stroke:#231f20;stroke-width:2.06461;stroke-linecap:butt;stroke-linejoin:miter;stroke-miterlimit:3.8636;stroke-dasharray:none;stroke-opacity:1"
         id="path52" />
      <path
         d="M 442.363,366.949 H 235.875"
         style="fill:none;stroke:#231f20;stroke-width:8.77502;stroke-linecap:butt;stroke-linejoin:miter;stroke-miterlimit:3.8636;stroke-dasharray:none;stroke-opacity:1"
         id="path54" />
      <path
         d="m 238.535,269.824 h 205.91 v -96.773 h -205.91 v 96.773"
         style="fill:#a80c30;fill-opacity:1;fill-rule:nonzero;stroke:none"
         id="path56" />
      <path
         d="m 238.535,269.824 h 205.91 v -96.773 h -205.91 z"
         style="fill:none;stroke:#231f20;stroke-width:5.72174;stroke-linecap:butt;stroke-linejoin:miter;stroke-miterlimit:3.8636;stroke-dasharray:none;stroke-opacity:1"
         id="path58" />
      <path
         d="m 238.453,545.574 58.856,10.844 85.699,-1.027 57.816,-13.942 v -6.719 l -58.847,13.422 h -84.668 l -58.856,-11.347 v 8.769"
         style="fill:#231f20;fill-opacity:1;fill-rule:nonzero;stroke:none"
         id="path60" />
      <path
         d="m 238.453,545.574 58.856,10.844 85.699,-1.027 57.816,-13.942 v -6.719 l -58.847,13.422 h -84.668 l -58.856,-11.347 z"
         style="fill:none;stroke:#231f20;stroke-width:5.6781;stroke-linecap:butt;stroke-linejoin:miter;stroke-miterlimit:3.8636;stroke-dasharray:none;stroke-opacity:1"
         id="path62" />
      <path
         d="M 381.977,555.391 V 468.652"
         style="fill:none;stroke:#231f20;stroke-width:7.22698;stroke-linecap:butt;stroke-linejoin:miter;stroke-miterlimit:3.8636;stroke-dasharray:none;stroke-opacity:1"
         id="path64" />
      <path
         d="M 297.309,558.484 V 465.039"
         style="fill:none;stroke:#231f20;stroke-width:7.22698;stroke-linecap:butt;stroke-linejoin:miter;stroke-miterlimit:3.8636;stroke-dasharray:none;stroke-opacity:1"
         id="path66" />
      <path
         d="m 400.551,466.07 v 45.953 l 22.73,-5.683 v -41.301 l -22.73,1.031"
         style="fill:#231f20;fill-opacity:1;fill-rule:nonzero;stroke:none"
         id="path68" />
      <path
         d="m 400.551,466.07 v 45.953 l 22.73,-5.683 v -41.301 z"
         style="fill:none;stroke:#231f20;stroke-width:2.06461;stroke-linecap:butt;stroke-linejoin:miter;stroke-miterlimit:3.8636;stroke-dasharray:none;stroke-opacity:1"
         id="path70" />
      <path
         d="m 299.371,558.484 h 84.145 l 57.308,-13.421 v -77.95"
         style="fill:none;stroke:#231f20;stroke-width:7.22698;stroke-linecap:butt;stroke-linejoin:miter;stroke-miterlimit:3.8636;stroke-dasharray:none;stroke-opacity:1"
         id="path72" />
      <path
         d="m 381.453,558.484 h -84.144 l -58.34,-13.421 v -77.95"
         style="fill:none;stroke:#231f20;stroke-width:7.22698;stroke-linecap:butt;stroke-linejoin:miter;stroke-miterlimit:3.8636;stroke-dasharray:none;stroke-opacity:1"
         id="path74" />
      <path
         d="M 179.32,465.906 H 393.77 V 432.258 H 179.32 v 33.648"
         style="fill:#a80c30;fill-opacity:1;fill-rule:nonzero;stroke:none"
         id="path76" />
      <path
         d="M 289.047,465.039 H 176.504 V 427.871 L 242.07,361.27"
         style="fill:none;stroke:#231f20;stroke-width:8.77502;stroke-linecap:butt;stroke-linejoin:miter;stroke-miterlimit:3.8636;stroke-dasharray:none;stroke-opacity:1"
         id="path78" />
      <path
         d="M 500.461,431.488 H 175.73"
         style="fill:none;stroke:#231f20;stroke-width:8.77502;stroke-linecap:butt;stroke-linejoin:miter;stroke-miterlimit:3.8636;stroke-dasharray:none;stroke-opacity:1"
         id="path80" />
      <path
         d="m 390.23,464.008 111.508,1.031 v -39.75 l -60.914,-60.902"
         style="fill:none;stroke:#231f20;stroke-width:8.77502;stroke-linecap:butt;stroke-linejoin:miter;stroke-miterlimit:3.8636;stroke-dasharray:none;stroke-opacity:1"
         id="path82" />
      <path
         d="M 176.504,465.039 H 503.801"
         style="fill:none;stroke:#231f20;stroke-width:8.77502;stroke-linecap:butt;stroke-linejoin:miter;stroke-miterlimit:3.8636;stroke-dasharray:none;stroke-opacity:1"
         id="path84" />
      <path
         d="M 392.82,465.039 V 429.938"
         style="fill:none;stroke:#231f20;stroke-width:8.77502;stroke-linecap:butt;stroke-linejoin:miter;stroke-miterlimit:3.8636;stroke-dasharray:none;stroke-opacity:1"
         id="path86" />
      <path
         d="m 238.535,20.9219 v 43.7226 h 205.469 l 0.851,-41.0937 C 422.137,15.6719 416.945,14.207 388.035,9.55469 357.063,4.89453 293.613,5.18359 238.535,20.9219"
         style="fill:#a80c30;fill-opacity:1;fill-rule:nonzero;stroke:none"
         id="path88" />
      <path
         d="M 383.008,366.949 V 8.67188"
         style="fill:none;stroke:#231f20;stroke-width:8.77502;stroke-linecap:butt;stroke-linejoin:miter;stroke-miterlimit:3.8636;stroke-dasharray:none;stroke-opacity:1"
         id="path90" />
      <path
         d="M 444.445,366.949 V 20.4375"
         style="fill:none;stroke:#231f20;stroke-width:8.77502;stroke-linecap:butt;stroke-linejoin:miter;stroke-miterlimit:3.8636;stroke-dasharray:none;stroke-opacity:1"
         id="path92" />
      <path
         d="M 298.855,366.949 V 7.64844"
         style="fill:none;stroke:#231f20;stroke-width:8.77502;stroke-linecap:butt;stroke-linejoin:miter;stroke-miterlimit:3.8636;stroke-dasharray:none;stroke-opacity:1"
         id="path94" />
      <path
         d="M 238.453,364.891 V 18.8984"
         style="fill:none;stroke:#231f20;stroke-width:8.77502;stroke-linecap:butt;stroke-linejoin:miter;stroke-miterlimit:3.8636;stroke-dasharray:none;stroke-opacity:1"
         id="path96" />
      <path
         d="m 282.852,601.328 35.625,-7.223 h 38.195 l 40.781,9.801"
         style="fill:none;stroke:#231f20;stroke-width:7.22698;stroke-linecap:butt;stroke-linejoin:miter;stroke-miterlimit:3.8636;stroke-dasharray:none;stroke-opacity:1"
         id="path98" />
      <path
         d="m 318.477,593.066 v -37.16"
         style="fill:none;stroke:#231f20;stroke-width:7.22698;stroke-linecap:butt;stroke-linejoin:miter;stroke-miterlimit:3.8636;stroke-dasharray:none;stroke-opacity:1"
         id="path100" />
      <path
         d="m 361.797,602.309 0.051,-40.727"
         style="fill:none;stroke:#231f20;stroke-width:7.22698;stroke-linecap:butt;stroke-linejoin:miter;stroke-miterlimit:3.8636;stroke-dasharray:none;stroke-opacity:1"
         id="path102" />
      <path
         d="M 282.336,606.492 H 397.453"
         style="fill:none;stroke:#231f20;stroke-width:7.22698;stroke-linecap:butt;stroke-linejoin:miter;stroke-miterlimit:3.8636;stroke-dasharray:none;stroke-opacity:1"
         id="path104" />
      <path
         d="M 339.113,694.773 269.426,612.168"
         style="fill:none;stroke:#231f20;stroke-width:7.22698;stroke-linecap:butt;stroke-linejoin:miter;stroke-miterlimit:3.8636;stroke-dasharray:none;stroke-opacity:1"
         id="path106" />
      <path
         d="m 270.461,612.168 3.617,-2.063 7.742,-3.613 2.063,-3.097 h -8.262 l -3.609,2.585 -1.551,6.188"
         style="fill:#231f20;fill-opacity:1;fill-rule:nonzero;stroke:none"
         id="path108" />
      <path
         d="m 270.461,612.168 3.617,-2.063 7.742,-3.613 2.063,-3.097 h -8.262 l -3.609,2.585 z"
         style="fill:none;stroke:#231f20;stroke-width:3.09692;stroke-linecap:butt;stroke-linejoin:miter;stroke-miterlimit:3.8636;stroke-dasharray:none;stroke-opacity:1"
         id="path110" />
      <path
         d="M 238.402,65.7422 H 444.855"
         style="fill:none;stroke:#231f20;stroke-width:5.6781;stroke-linecap:butt;stroke-linejoin:miter;stroke-miterlimit:3.8636;stroke-dasharray:none;stroke-opacity:1"
         id="path112" />
      <path
         d="m 338.59,693.066 36.39,-80.734 -102.222,-3.625 -4.102,7.422 69.934,76.937"
         style="fill:#a80c30;fill-opacity:1;fill-rule:nonzero;stroke:none"
         id="path114" />
      <path
         d="m 281.82,552.285 v 50.082 l -11.359,3.613 v 9.293 l 68.652,79.5 69.184,-78.988 v -9.293 l -10.844,-2.586 -0.508,-50.586"
         style="fill:none;stroke:#231f20;stroke-width:7.22698;stroke-linecap:butt;stroke-linejoin:miter;stroke-miterlimit:3.8636;stroke-dasharray:none;stroke-opacity:1"
         id="path116" />
      <path
         d="m 403.844,605.621 5.863,7.379 -40.168,10.027 h -55.68 l -46.41,-12.922 43.098,-16.144 h 51.711 l 41.586,11.66"
         style="fill:#231f20;fill-opacity:1;fill-rule:nonzero;stroke:none"
         id="path118" />
      <path
         d="m 339.113,692.188 32.02,-72.786"
         style="fill:none;stroke:#231f20;stroke-width:7.22698;stroke-linecap:butt;stroke-linejoin:miter;stroke-miterlimit:3.8636;stroke-dasharray:none;stroke-opacity:1"
         id="path120" />
      <path
         d="M 339.113,692.707 312.797,614.75"
         style="fill:none;stroke:#231f20;stroke-width:7.22698;stroke-linecap:butt;stroke-linejoin:miter;stroke-miterlimit:3.8636;stroke-dasharray:none;stroke-opacity:1"
         id="path122" />
      <path
         d="M 4.23047,344.402 C 1.39844,153.969 164.828,-5.65234 355.016,4.66797 535.23,14.4453 672.438,163.426 669.75,343.871 667.129,519.477 537.051,658.422 362.012,672.605 l -22.899,23.211 -23.789,-22.019 -6.851,-0.668 C 134.531,657.047 6.82813,519.078 4.23047,344.402 Z"
         style="fill:none;stroke:#231f20;stroke-width:8.38592;stroke-linecap:butt;stroke-linejoin:miter;stroke-miterlimit:4;stroke-dasharray:none;stroke-opacity:1"
         id="path124" />
      <path
         d="m 3526.59,364.414 h 2.9 c 3.3,0 6.09,1.191 6.09,4.297 0,2.195 -1.6,4.394 -6.09,4.394 -1.3,0 -2.2,-0.097 -2.9,-0.195 z m 0,-13.894 h -4 v 25.085 c 2.1,0.293 4.09,0.606 7.09,0.606 3.8,0 6.3,-0.801 7.8,-1.906 1.5,-1.102 2.3,-2.801 2.3,-5.203 0,-3.293 -2.2,-5.293 -4.89,-6.094 v -0.195 c 2.19,-0.403 3.69,-2.403 4.19,-6.094 0.6,-3.906 1.2,-5.403 1.6,-6.199 h -4.2 c -0.6,0.796 -1.19,3.093 -1.7,6.394 -0.6,3.203 -2.2,4.395 -5.39,4.395 h -2.8 z m 4.2,32.078 c -9.9,0 -17.99,-8.496 -17.99,-18.985 0,-10.695 8.09,-19.093 18.08,-19.093 10,-0.098 17.99,8.398 17.99,18.996 0,10.586 -7.99,19.082 -17.99,19.082 z m 0.09,3.496 c 12.3,0 22.09,-9.992 22.09,-22.481 0,-12.695 -9.79,-22.59 -22.18,-22.59 -12.3,0 -22.29,9.895 -22.29,22.59 0,12.489 9.99,22.481 22.29,22.481 h 0.09"
         style="fill:#ffffff;fill-opacity:1;fill-rule:nonzero;stroke:none"
         id="path126" />
    </g>
  </g>
</svg>
